<?xml version="1.0" standalone="no"?><!DOCTYPE svg PUBLIC "-//W3C//DTD SVG 1.1//EN" "http://www.w3.org/Graphics/SVG/1.1/DTD/svg11.dtd"><svg t="1765807048827" class="icon" viewBox="0 0 1024 1024" version="1.1" xmlns="http://www.w3.org/2000/svg" p-id="13676" xmlns:xlink="http://www.w3.org/1999/xlink" width="128" height="128"><path d="M519.651975 469.207425L529.20476 536.125654c29.730604 8.285578 39.283389 27.439886 28.707091 57.316707 63.360305 10.722513 116.631699 31.680152 152.893289 86.023798 40.891766 0 35.579248 47.763922 76.422276 47.763922 10.283865 20.616468 27.976011 28.170966 47.763921 43.036268 21.834936 16.376202 29.730604 36.407806 38.259877 62.093099-44.352213 0 28.41466 58.876345 33.6297 68.721561 16.961066 31.826368 52.394098 57.365445 52.394098 88.996859 0 42.207711-59.266254 29.828082-95.576583 33.434745-29.925559-40.209424 4.48396-66.966968-26.221418-98.013517-22.955926-23.248358-71.938315 24.028177-117.119086-7.11585-31.192765-37.431318-70.62237-58.096525-95.527844-95.527844l-124.283675-28.707092c-0.048739 35.969158 5.99486 71.645883 19.105569 105.129367-51.175631 0-64.335079-57.950309-124.381152-52.004188-60.046073 5.897382-69.257687-14.914041-85.877582-14.914041 26.562589 56.926797 64.822465 95.820276 66.91823 162.494812l-191.153165 9.552784c10.868729-36.99267 44.693384-32.216278 66.918229-57.365445-85.097763-48.982389-151.089957-224.587911-133.78772-267.57544 17.302237-42.98753 143.291766-42.98753 219.811518-57.316706-10.527558-40.843027-37.187625-47.276535-42.061494-93.675774l-15.303951-145.241313c-37.431318-0.682342-68.234174-2.729367-85.975059-38.259877-35.091861 12.769538-47.763922 3.216754-38.259877-28.658353-11.794764 0-30.412946-9.747739-38.211137-19.105569 0-26.513851-31.290243-35.530509-42.402666-69.696335-14.719086-45.034555 38.893479-35.579248 71.061019-35.433032 13.500619 15.352689 47.763922 9.114136 47.763922 28.658354 17.058544-5.653689 26.611328 0.682342 28.707092 19.154307l114.682151 9.552784c-13.890528-55.513375-73.741647-144.99762 17.058544-178.724797C446.056545 37.041409 462.189053 108.199905 455.9505 176.141647c-3.411709 37.967444-12.7208 48.933651-12.7208 92.408567l57.316706 6.336031c57.755355 6.433508 12.7208-24.076916 47.763922-54.099953 62.77544-20.957639 65.797239-103.618467 57.365445-162.494812 32.801142 0 18.618182 21.055117 28.658354 47.276535 28.268444 17.20476 50.980676-43.572394 105.665492-56.829319 54.733555-13.208187-120.628272 123.796287-93.675773 196.56316 25.295383 68.087958 5.507473 62.385531-11.989719 123.601333-13.84179 48.495002-44.352213 39.965731-86.023799 52.540314-2.388196 17.058544-7.45702 47.763922-28.658353 47.763922z" fill="#45515D" p-id="13677"></path></svg>